<svg xmlns="http://www.w3.org/2000/svg" width="100" height="100" id="docx">
  <path fill="#4B8CDB" d="m89.068 44.376-6.885-5.089h-.07V26.576h-.006L60.041 4.982l-.012.011H17.87v34.325l-6.939 5.242v28.721h6.939v21.736h64.243V73.281H89.053v-8.994l.015-19.911zM24.726 66V53.33h4.872c.972 0 1.857.156 2.655.471.798.315 1.48.752 2.048 1.314a5.842 5.842 0 0 1 1.318 2.004c.312.775.467 1.621.467 2.541 0 .926-.155 1.777-.467 2.555s-.751 1.445-1.318 2.004a6.027 6.027 0 0 1-2.048 1.309c-.798.315-1.684.472-2.656.472h-4.871zm13.127-6.34c0-.926.157-1.783.468-2.572a6.01 6.01 0 0 1 1.323-2.047 6.152 6.152 0 0 1 2.051-1.357c.798-.328 1.682-.494 2.654-.494.973 0 1.857.166 2.655.494.797.33 1.479.783 2.048 1.363a6.073 6.073 0 0 1 1.317 2.051 6.89 6.89 0 0 1 .467 2.563c0 .926-.154 1.784-.467 2.575a6.062 6.062 0 0 1-1.317 2.054 6.126 6.126 0 0 1-2.048 1.356c-.798.328-1.683.492-2.655.492-.972 0-1.856-.164-2.654-.492a6.15 6.15 0 0 1-2.051-1.356c-.571-.576-1.012-1.263-1.323-2.054s-.468-1.65-.468-2.576zm17.725 1.82c.189.533.447.981.777 1.35.328.368.713.645 1.151.834s.909.283 1.41.283c.297 0 .565-.014.808-.043s.467-.08.672-.148c.207-.07.402-.16.586-.271.185-.108.369-.25.555-.418a.961.961 0 0 1 .201-.131.496.496 0 0 1 .227-.053.49.49 0 0 1 .367.156l1.039 1.109a4.944 4.944 0 0 1-1.907 1.483c-.761.338-1.664.507-2.712.507-.949 0-1.802-.162-2.559-.484a5.516 5.516 0 0 1-1.93-1.35 6.008 6.008 0 0 1-1.223-2.052c-.286-.793-.428-1.655-.428-2.594 0-.63.068-1.228.203-1.795a6.345 6.345 0 0 1 .6-1.566c.262-.479.578-.907.947-1.293.369-.383.787-.711 1.253-.981s.974-.478 1.522-.619a6.934 6.934 0 0 1 1.76-.215c.467 0 .906.041 1.322.123.418.082.807.194 1.166.34a5.543 5.543 0 0 1 1.825 1.205l-.882 1.205a.83.83 0 0 1-.2.201.56.56 0 0 1-.333.088.767.767 0 0 1-.423-.148 7.982 7.982 0 0 0-.524-.332c-.205-.123-.465-.232-.775-.332s-.706-.148-1.184-.148c-.529 0-1.017.096-1.459.289a3.18 3.18 0 0 0-1.14.832 3.858 3.858 0 0 0-.737 1.342c-.176.529-.262 1.131-.262 1.808.004.68.098 1.285.287 1.818zM73.363 66a.664.664 0 0 1-.424-.131 1.083 1.083 0 0 1-.258-.307l-2.75-4.662a2.19 2.19 0 0 1-.166.358l-2.602 4.305a1.708 1.708 0 0 1-.268.304.56.56 0 0 1-.385.133h-2.443l4.146-6.514-3.99-6.156h2.618c.175 0 .304.023.386.07s.153.121.217.227l2.717 4.479c.029-.069.063-.141.102-.213.037-.074.079-.146.127-.223l2.443-4a.798.798 0 0 1 .232-.258.55.55 0 0 1 .31-.082h2.505l-4.023 6.041L75.982 66h-2.619zM56.938 8.087l-.021 21.555 22.103.025v14.725H20.963V8.087h35.975zM79.02 91.924H20.963V73.281h58.055v18.643h.002z"/>
  <path fill="#4B8CDB" d="M41.551 62.795c.329.367.729.648 1.201.842a4.147 4.147 0 0 0 1.597.293c.594 0 1.126-.098 1.594-.293a3.233 3.233 0 0 0 1.196-.842c.329-.367.581-.813.756-1.34s.262-1.125.262-1.795c0-.664-.087-1.26-.262-1.785a3.78 3.78 0 0 0-.756-1.344 3.244 3.244 0 0 0-1.196-.848c-.468-.195-1-.293-1.594-.293-.593 0-1.125.098-1.597.293a3.215 3.215 0 0 0-1.201.848 3.755 3.755 0 0 0-.755 1.344c-.175.525-.263 1.121-.263 1.785 0 .67.088 1.268.263 1.795.174.527.426.973.755 1.34zm-8.417-1.336c.175-.529.262-1.129.262-1.799 0-.664-.087-1.26-.262-1.789a3.76 3.76 0 0 0-.751-1.346 3.274 3.274 0 0 0-1.191-.846c-.468-.199-1-.298-1.594-.298h-2.234v8.563h2.234c.594 0 1.126-.098 1.594-.293a3.197 3.197 0 0 0 1.191-.846c.326-.366.577-.817.751-1.346z"/>
</svg>