<svg xmlns="http://www.w3.org/2000/svg" id="employees-appreciating-work-by-giving-high-five" viewBox="0 0 720.922 661.444">
  <path d="M720.922 293.872a3.225 3.225 0 0 0-3.485-2.931c-3.727 0-77.233 69.294-108.7 163.057a18.272 18.272 0 0 1-.912 1.816C583.036 423.382 479.6 371.68 441.107 327.336a17.556 17.556 0 0 0-2.9-2.188c14.128-35.306-1.023-41.576 18.277-67.127 7.3-9.669 16.755-19.876 16.755-27.3 0-4.912-3.469-8.838-8.465-8.838-11 0-29.712 21.161-40.214 28.522-13.5-75.168-16.086-93.394-22.924-93.394-2.647 0-16.2 8.568-16.2 40.047 0 6.638.513 8.068 1.08 16.4l-.5.061c-7.432-37.63-6.946-63.284-18.252-63.284-5.067 0-13.207 7.044-13.207 31.723 0 7.4.324 17.1.324 20.139v1.138c-3.633-8.158-6.936-34.28-18.553-34.28-7.506 0-12.1 5.967-12.1 21.228 0 4.724.547 12 2.337 23.86-5.324 1.219-7.9 5.335-10.9 9.525-2.6-13.536-5.917-28.868-19.878-28.868-9.444 0-11.146 16.04-11.9 23.265-3.042-5.509-5.487-12.471-13.25-12.471-5.994 0-11.3 9.648-11.3 24.033 0 13.061 1.257 42.162 3.56 64.577-7.168-8.958-10.7-29.982-31.337-40.078a7.28 7.28 0 0 0-3.18-.825c-4.458 0-5.93 5.391-5.93 9.827 0 3.369 11.97 53.852 26.664 73.973a7.051 7.051 0 0 1 .5 1.225c-2.318-1.365-3.623-2.319-5-2.319-6.4 0-2.112 16.7-50.27 44.748-88.29 51.422-74.86 36.949-128.4 87.336-35.284-107.474-47.495-114.1-48.713-114.1a3.224 3.224 0 0 0-2.687 3.171c0 .094 46.6 92.5 46.6 116.355 0 3.776-23.308 27.758-23.308 62.524 0 19.33 9.374 29.407 18.981 29.407 15.69 0 20.062-23.477 20.062-39.321 0-23.336-8.609-47.734-8.609-50.053 0-22.37 97.615-67.846 160.51-112.691 16.611 14.9 20.538 20.993 23.377 20.993a2.816 2.816 0 0 0 2.812-2.8c0-2.633-5.983-6.464-22.013-22.5 5.422-4.605 8.761-10.468 12.066-16.6l81.308 48.282c-6.807 6.075-12.144 13.133-17.7 20.094-12.1-6.863-17.252-10.9-19.158-10.9a2.879 2.879 0 0 0-2.865 2.869c0 2.414 1.047 2.115 18.317 12.74-70.426 113.6-125.84 212.591-302.116 240.1A2.992 2.992 0 0 0 0 658.427a3.036 3.036 0 0 0 3.055 3.017h.01c192.023 0 298.912-247.52 329.108-268.4a3.791 3.791 0 0 0 1.984-2.907c0-2.022-2.593-3.2-5.088-4.736a88.027 88.027 0 0 0 18.441-34.672c45.527 27.675 123.524 271.964 266.144 271.964 44.807 0 75.164-32.727 75.164-35.415a3.274 3.274 0 0 0-3.238-3.078c-4.267 0-25.349 32.616-72.16 32.616-87.905 0-157.779-100.1-229.827-234.37 11.209-.8 23.59-5.169 23.59-9.33a2.75 2.75 0 0 0-2.554-2.816c-2.131 0-11.587 6.5-20.092 6.5-.5 0-.959.02-1.386.02-2.855 0-4.444-.878-11.058-14.393 26.586-.608 48.26-10.427 63.69-32.9l6.991 7.678c-10.9 17.123-15.2 16.564-15.2 19.922a2.726 2.726 0 0 0 2.677 2.722c.267 0 5.188-.349 16.157-18.36 62.146 53.686 159.4 106.806 159.4 121.416 0 .737-6.873 21.782-6.873 41.006 0 35.847 19.154 36.3 21.1 36.3h.117c10.372 0 20.535-9.348 20.535-25.222 0-28.26-27.567-51.487-27.567-55.034 0-.712 11.753-62.7 106.7-163.649a3.616 3.616 0 0 0 1.102-2.434ZM70.992 526.09c0 18.112-5.349 33.385-14.19 33.385-5.555 0-13.09-6.765-13.09-23.527 0-28.784 18.965-53.258 19.6-54l.543.1c2.392 10.117 7.136 26.452 7.136 44.042Zm252.87-143.733c-59.053-34.863-78.36-35.74-95.325-117.347a10.805 10.805 0 0 1-.242-2.216 8.843 8.843 0 0 1 .717-3.5c23.445 13.566 25.5 41.936 34.136 41.936.184 0 5.786-.5 5.786-5.676 0-.169-3.654-33.591-3.654-64.956 0-16.678 5.088-19.161 5.763-19.161 12.838 0 13.155 57.277 13.18 57.886.092 2.2 1.133 3.475 2.69 3.475 1.585 0 2.6-1.18 2.6-3.51 0-2.09-.3-33.166-.3-36.195 0-31.427 5.68-32.47 6.923-32.47 10.926 0 14.3 22.081 14.3 35.2 0 2.633-.046 3.162-.046 6.058 0 1.554.013 3.108.013 4.662 0 6.107-.3 10.622-.3 16.781 0 2.772-.024 5.1-.024 7.043 0 6.7.284 8.824 2.81 8.824 7.148 0-1.987-44.577 11.781-57.634.976-.926 1.63-1.411 2.27-1.411 11.815 0 16.895 86.3 16.895 102.977-.002 17.183-1.396 38.928-19.974 59.234Zm49.765-25.986h-.17c-.1 0-.836.091-2.022.091-15.607 0-22.693-13.79-22.693-15.321a156.407 156.407 0 0 0 1-18.209c0-9.683-3.843-93.761-15.632-104.609-3.208-2.952-4.026-29.474-4.026-29.568 0-2.385.411-13.908 6.017-13.908 9.7 0 18.163 67.876 25.64 67.876 2.86 0 3.242-4.336 3.242-5.152 0-5.85-4.63-25.439-4.63-55 0-19.923 5.687-26.341 7.415-26.341 6.988 0 10.592 78.765 21.142 78.765 4.034 0 4.11-1 4.11-8.216 0-12.059-1.707-21.637-1.707-29.436 0-23.6 7.307-30.876 9.9-33.465 5.205 10.692 6.455 43.415 16.647 82.312a17.679 17.679 0 0 1 .527 4.523c0 14.743-56.4 32.7-56.4 67.549 0 7.16 4.016 14.135 10.525 14.135 6.906 0 10.833-9.243 10.833-15.911 0-4.6-2.6-12.835-3.678-14.04a2.628 2.628 0 0 0-2.01-.952 2.8 2.8 0 0 0-2.9 2.697v.027c0 2.209 2.715 7.309 2.715 11.738 0 5-2.623 10.564-5.061 10.564-1.626 0-4.545-2.487-4.545-8.562 0-24.472 31.8-36.455 74.774-75.292 15.805-14.281 20.631-14.882 21.973-14.882a2.613 2.613 0 0 1 2.76 2.867c0 10.925-26.729 25.938-27.859 57.031-2.488 68.372-59.382 68.689-65.887 68.689Zm261.148 158.037c0 19.161-13.694 19.921-14.361 19.921-15.508 0-15.583-25.933-15.583-30.205v-.119c0-15.886 5.091-34.739 6-36.3.426.159 23.944 24.558 23.944 46.703Z"/>
  <path d="M608.898 207.923a76.076 76.076 0 0 0 25.94-57.065c0-38.3-30.036-75.35-74.563-75.35-42.006 0-75.164 35.157-75.164 75.972 0 39.74 31.306 75.411 74.314 75.411 9.3 0 14.82-1.747 16.22-1.747 3.142 0 19.054 25.108 48 25.108.291 0 .767.018 1.358.018 2.964 0 8.827-.452 8.827-5.891-.005-4.368-12.561-5.961-24.932-36.456Zm12.781 34.888c-28.23-3.035-38.18-25.845-43.8-25.845-.947 0-9.474 2.091-18.367 2.091a66.915 66.915 0 0 1-66.674-67.155l.002-.29c0-36.37 29.121-68.354 67.351-68.354a67.072 67.072 0 0 1 66.902 67.242l-.002.366c0 36.49-26.542 52.617-26.542 56.086 0 .317 3.81 16.993 20.578 34.536.25.261.462.558.692.838ZM160.562 169.17c-38.745 0-86.312 18.679-86.312 49.35 0 2.859.359 4.335.359 5.141 0 2.255-.2 1.882-13.6 11.25-.441.308-2.073.916-2.073 2.687a2.911 2.911 0 0 0 2.836 2.913c5.055 0 17.383-.909 20.643-.909 8.577 0 17.479 14.319 54.854 14.605 53.537-.15 88.531-25.068 88.531-48.206 0-19.879-24.817-36.831-65.238-36.831Zm-20.941 79.142c-38.788 0-47.917-14.875-54.925-14.875-1.628 0 1.521.048-11.224.693l-.157-.364c6.87-6.124 7.223-6.994 7.223-9.218 0-1.527-.348-3.927-.348-6.115 0-24.49 40.676-43.352 80.4-43.352 36.841 0 59.342 14.726 59.342 30.784.002 22.471-39.41 42.447-80.31 42.447ZM140.414 313.365c-3.755-3.729-4.357-6.639-6.547-6.639a3.852 3.852 0 0 0-3.542 3.516c-1.418 14.487-5.19 12.231-12.032 19.127a2.723 2.723 0 0 0-.88 1.936 2.433 2.433 0 0 0 2.336 2.526q.066.003.133.002c.66 0 1.25-.206 2.865-.206 6.395 0 16.31 5.014 16.65 12.288a4.364 4.364 0 0 0 4.058 4.325 2.7 2.7 0 0 0 2.68-2.647c0-.853-.7-2.354-.7-4.541 0-5.123 7.238-15.225 11.17-18.713a7.495 7.495 0 0 0 1.3-2.021v-.186c-.002-6.596-8.495.169-17.49-8.767Zm.653 22.454c-3.3-3.591-7.588-5.562-12.6-6.937a22.75 22.75 0 0 0 6.81-12.624c3.865 3.845 7.918 6.8 13.142 7.857ZM321.091 104.136c-4.73-17.733-2.807-22.107-6.667-22.107-4.069 0-2.6 12.17-15.724 12.5a14.413 14.413 0 0 0-4.352.956 2.347 2.347 0 0 0-1.636 2.22c0 2.308 6.151 5.856 7.872 8.6 4.613 7.352 4.81 9.494 4.81 10.263v.183c0 1.776-.728 2.182-.728 3.21a2.636 2.636 0 0 0 2.576 2.487c2.77 0 3.386-5.325 8.872-8.95a4.875 4.875 0 0 1 2.564-1.155 2.4 2.4 0 0 1 .726.116c.115 0 .227.008.335.008 1.65 0 2.442-.608 3.28-2.419a3.76 3.76 0 0 0 .408-1.575c0-1.798-1.867-2.586-2.336-4.337Zm-10.868 6.71-7.269-10.863c3.56-1.058 7.153-2.573 9.806-6.113l2.833 13.055ZM525.151 304.712a3.066 3.066 0 0 0 .056-.573c0-1.627-1.378-2.054-2.512-2.745a3.87 3.87 0 0 0-1.969-.648c-4.52 0-.205 11.648-14.307 17.683-1.778.761-3.637 1.6-3.637 3.5 0 3.39 3.32 2.6 4.682 3.6 8.448 6.168 4.257 9.293 8.432 13.762a3.514 3.514 0 0 0 2.51 1.267c5.027 0 .8-9.822 12.775-16.8a3.331 3.331 0 0 0 1.984-2.738c0-3.484-7.434-4.041-8.014-16.308Zm-7.072 23.812-5.75-6.593a20.95 20.95 0 0 0 8.446-8.984l4.4 7.917ZM359.875 459.794c-3.02-3.908-6.118-3.656-8.965-14.13-.02-.078-.429-2.444-2.447-2.444-4.714 0-.862 6.511-9.786 14.567-2.09 1.888-3.983 3.006-3.983 4.6 0 2.722 6.115 2.878 9.557 11.747 1 2.567 1.68 3.377 3.046 3.377 3.841 0 2.053-8.482 11.01-14.6a3.047 3.047 0 0 0 1.576-2.825c0-.097-.003-.193-.008-.292Zm-12.857 9.092-5.889-7.085a27.2 27.2 0 0 0 6.8-9.352l5.513 7.934Z"/>
  <path d="M517.854 132.311q0-.382.015-.768-.01-.314-.01-.624c0-8.317 5.537-14.81 12.082-14.81 3.193 0 6.911 2.215 6.911 4.411a2.535 2.535 0 0 1-2.455 2.47c-1.543 0-2.45-1.219-4.7-1.219-4.813 0-6.069 7.427-6.069 9.838 0 3.153 1.522 9.695 6.17 9.695 2.731 0 3.493-4.8 3.493-5.2 0-2.066-2.55-2-2.55-4.515a2.876 2.876 0 0 1 2.833-2.831c1.4 0 5.625 2.047 5.625 7.621 0 3.706-2.736 10.789-9.523 10.789-8.793-.004-11.822-9.797-11.822-14.857ZM593.51 125.256a14.355 14.355 0 0 1 3.2.875c-.269-7.377-6.732-10.946-6.732-13.809a2.507 2.507 0 0 1 2.456-2.393c3.11 0 10.8 8.824 10.8 21.61 0 11.03-8.392 12.225-9.32 12.225-4.668 0-7.685-5.588-7.685-10.267.007-6.839 6.613-8.241 7.281-8.241Zm3.9 6.352a13.351 13.351 0 0 0-.328-2.909c-4.306 3.391-4.956 3.486-4.956 4.768a5.98 5.98 0 0 0 1.731 4.254c2.46-.45 3.549-3.128 3.549-6.113ZM547.319 175.4c0 15.345-9.866 18.5-12.444 18.5-5.6 0-6.962-5.3-6.962-7.352 0-1.956 1.338-4.854 3.753-4.854a2.906 2.906 0 0 1 2.94 2.8c0 1.262-.474 1.447-.474 1.739v.225c0 .8.042 1.4 1.044 1.4.7 0 6.279-3.015 6.279-11.362 0-6.049-2.86-8.926-4.9-8.926-1.42 0-2.111.7-3.33.7a2.554 2.554 0 0 1-2.566-2.542v-.018c0-2.375 3.654-3.551 5.978-3.551 7.914-.002 10.682 9.215 10.682 13.241ZM562.116 187.886c-5.727 0-10.488-4.778-10.488-11.192 0-6.307 4.61-11.076 10.6-11.076 7.9 0 10.324 7.88 10.324 11.177-.002 4.604-3.375 11.091-10.436 11.091Zm4.662-10.99c-.143-.63-.569-5.377-4.736-5.377-.26 0-4.56.286-4.56 5.26 0 2.026 1.452 5.2 4.648 5.2 3.827-.002 4.389-4.269 4.648-5.083ZM582.754 172.6a10.314 10.314 0 0 1 2.847-.449 8.111 8.111 0 0 1 7.6 8.49c0 6.133-4.3 9.343-7.468 9.343-3.431 0-9.067-3.9-9.067-14.2 0-6.911 4.34-15.128 8.181-15.128a2.641 2.641 0 0 1 2.722 2.512 3.1 3.1 0 0 1-1.459 2.366c-2.213 1.686-2.719 4.138-3.356 7.066Zm2.6 5.531c-.914 0-1.63.723-2.4 1.36.485 1.824.99 3.569 3.06 4.605a7.07 7.07 0 0 0 1.321-3.634c0-1.948-1.339-2.326-1.98-2.326ZM543.06 134.326c.221-.87 1.158-9.692 9.37-9.692 5.923 0 10.86 5.712 10.86 12.164 0 3.94-2.483 10.359-9.34 10.359-4.111 0-10.408-3.215-10.89-12.831Zm14.4 2.648c-.336-4.188-2.834-6.455-5.008-6.455-2.08 0-3.443 2.122-3.443 4.459 0 3.331 2.4 6.283 4.963 6.283 3.013 0 3.331-3.576 3.489-4.287ZM565.675 136.129c.312-11.763 9.241-11.8 9.43-11.8 7.8 0 8.523 8.572 8.523 10.137 0 5.155-4.052 10.826-9.442 10.826-7.31-.004-8.267-8.167-8.51-9.163Zm12.1-2.239c-.05-.171-.536-3.725-2.629-3.725-1.652 0-3.54 2.347-3.54 5.27 0 1.938.966 3.9 2.564 3.9.701.001 3.085-.524 3.605-5.445ZM150.923 207.624c.4 2.454.736 4.5 1.113 6.806a15.9 15.9 0 0 1 3.707-.927 1.8 1.8 0 0 1 1.902 1.692q.003.054.003.108c0 2.058-3.064 2.662-4.866 3.218 0 .372-.026.744-.026 1.112 0 .77 1.653 12.367 1.653 12.607 0 .606-1.049 2.108-1.964 2.108a2.962 2.962 0 0 1-1.854-.86 3.91 3.91 0 0 1-.7-2.075c-2.2-15.019-2.357-13.862-2.357-14.069v-.279c0-.263.147-1.053.147-2.44 0-4.619-1.554-6.96-1.554-8.277 0-2.639 5.378-2.79 5.914-2.79 1.124 0 6.336.353 6.336 3.1a1.916 1.916 0 0 1-1.885 1.925c-1.326.002-.6-.513-5.569-.959ZM108.11 223.391c-1.55-.133-3.422-.278-3.422-2.493 0-1.305 1.194-1.816 2.541-2.319-1.7-7.552-1.768-7.227-1.768-7.835v-.177c0-3.219 3.2-3.671 4.81-3.671.549 0 6.022.149 6.022 5.153 0 5.605-4.122 6.348-4.122 9.127 0 .941 1.4 5.159 1.4 7.037a1.932 1.932 0 0 1-2.037 2.121c-2.258.002-2.482-2.842-3.424-6.943Zm2.546-8.7a4.616 4.616 0 0 0 1.41-2.419c0-.739-.8-.863-1.922-1.487.208 1.587.347 2.636.512 3.904ZM193.581 216.075c-.966 0-2.48-.568-4.659-14.355-2.472.895-2.733 1.035-3.337 1.035a1.95 1.95 0 0 1-1.888-2c0-2.063 2.573-2.493 5.025-3.128 0-.557-.02-1.078-.02-1.581 0-1.432.185-4.043 2.092-4.043 1.881 0 1.993 1.566 1.993 2.513v.342c0 .608-.02 1.267-.02 2.049 5.56-1.122 5.36-1.157 6.046-1.157a2.153 2.153 0 0 1 2.222 2.081q.004.097-.002.193c0 2.074-1.892 2-7.43 3.106 2.02 11.832 2.348 10.9 2.348 12.545a2.113 2.113 0 0 1-2.12 2.4c-.08-.005-.163 0-.25 0ZM133.291 222.436c-.078-.526-1.633-10.7-1.633-11.856a2.181 2.181 0 0 1 1.472-2.181c1.657-.7 3.11-1.719 4.726-1.719a3.671 3.671 0 0 1 3.657 3.574c0 1.669-1.059 3.1-2.538 5.824a11.246 11.246 0 0 0 4.56 1.212c.234 0 .472-.059.706-.059a2.106 2.106 0 0 1 2.244 1.958q.005.063.005.127c0 2.027-1.709 2.2-2.531 2.2-.166 0-.3-.007-.368-.007a18.371 18.371 0 0 1-6.061-1.01 18.03 18.03 0 0 1 .737 3.38 2.018 2.018 0 0 1-1.972 2.063h-.059c-1.751 0-2.269-1.962-3.018-3.589ZM165.78 212.615c.587 1.944 1.12 2.76 2.123 2.76 1.395 0 2.318-1.125 3.7-1.125a1.857 1.857 0 0 1 1.857 1.858l-.001.042c0 1.6-1.9 3.641-5.546 3.641a5.3 5.3 0 0 1-4.351-1.957c-.51-.666-3.372-5.922-3.372-7.295 0-.708.467-1.05.467-2.7 0-1.871-.723-3.686-.723-4.913 0-2.633 4.571-3.08 6.117-3.08 4.062 0 4.121 2.124 4.121 2.333v.014a1.874 1.874 0 0 1-1.857 1.89q-.081.001-.162-.005h-3.639c.067 1.489.127 2.846.2 4.4 3.195-.291 3.186-.3 3.459-.3h.041c.441 0 2.322.064 2.322 1.845-.006 2.23-3.659 2.444-4.756 2.592Z"/>
  <path d="M133.216 222.351v.094c0 3.034-1.7 4.822-4.57 4.822-7.27 0-9.74-7.733-9.74-15.038 0-1.614 2.6-3.678 5.977-3.678 4 0 4.447 1.6 4.447 2.4a1.9 1.9 0 0 1-1.932 1.867q-.078-.001-.156-.009c-.6 0-1.2-.131-2.093-.131-1.4 0-2.013.395-2.013 1.47a8.595 8.595 0 0 0 .513 2.41c3.351-.681 3.409-.746 4.009-.746a1.917 1.917 0 0 1 2.137 1.892c0 1.941-2.628 2.265-4.611 2.834.807 1.5 1.671 2.256 2.706 2.256 1.476 0 2-1.174 3.3-1.174a4.247 4.247 0 0 1 2.1.815ZM178.364 204.59a9.365 9.365 0 0 0-.653 3.4c0 .419.185 5.4 3.134 5.4 2 0 2.794-1.887 4.4-1.887a2.05 2.05 0 0 1 1.962 1.921c0 1.439-2.334 4.393-6.056 4.393-5.5 0-7.711-5.068-7.711-9.459 0-2.847 1.363-8.852 5.711-8.852a2.665 2.665 0 0 1 2.711 2.614c.005 2.103-2.248 2.129-3.498 2.47Z"/>
  <path d="M633.546 164.793c-4.168 22.246-17.452 37.133-24.648 43.13 12.37 30.492 24.927 32.089 24.927 36.456 0 5.439-5.863 5.891-8.827 5.891-.59 0-1.067-.018-1.358-.018-28.94 0-44.853-25.108-47.995-25.108-1.4 0-6.917 1.748-16.22 1.748-43.008 0-74.314-35.672-74.314-75.412a76.735 76.735 0 0 1 38.651-66.3c-9.909-13.413-33.34-39.176-39-42.454-33.644 29.822-34 32.754-37.462 32.754a4.227 4.227 0 0 1-4.19-4.217c0-4.091 19.847-18.91 35.116-34.27C473.64 30.899 427.098 0 358.726 0c-14.1 0-19.88 1.027-20.1 1.053-.023.384-.06.606-.06.788 0 .551 5.315 38.377 5.315 40.315a4.159 4.159 0 0 1-4.146 4.172h-.059c-4.949 0-3.924-1.9-9.472-42.9a8.26 8.26 0 0 0-.4-1.29c-61.054 5-105.495 49.716-124.294 97.1 32.283 8.962 42.408 6.6 42.408 13.056a4.271 4.271 0 0 1-4.273 4.249c-1.493 0-34.15-7.775-42.389-9.367-22.568 38.8-35.07 54.936-40.464 62 40.286.064 65.012 16.987 65.012 36.828 0 23.138-34.994 48.056-88.53 48.206-15.419-.118-25.984-2.625-33.687-5.529-14.6 22-31.355 61.329-31.355 96.2 0 9.125.471 9.82.555 10.256 8.13-1.727 40.254-9.832 42.246-9.832a4.118 4.118 0 0 1 4.125 4.111v.083c0 4.722-1.046 3.5-45.928 14.362 0 .418-.022.781-.022 1.119 0 28.5 19.216 61.3 26.377 72.487 20.607-16.985 31.917-20.205 94.762-56.808 48.16-28.049 43.867-44.748 50.272-44.748 1.373 0 2.678.954 5 2.319a7.052 7.052 0 0 0-.5-1.225c-14.7-20.121-26.665-70.6-26.665-73.973 0-4.436 1.473-9.827 5.931-9.827a7.28 7.28 0 0 1 3.18.825c20.632 10.1 24.17 31.12 31.336 40.078-2.3-22.415-3.559-51.516-3.559-64.577 0-14.385 5.3-24.033 11.3-24.033 7.763 0 10.208 6.962 13.25 12.471.757-7.225 2.46-23.265 11.9-23.265 13.961 0 17.281 15.332 19.878 28.868 3-4.19 5.575-8.306 10.9-9.525-1.79-11.86-2.337-19.136-2.337-23.86 0-15.261 4.594-21.228 12.1-21.228 11.617 0 14.92 26.122 18.553 34.28v-1.138c0-3.038-.324-12.74-.324-20.139 0-24.679 8.14-31.723 13.207-31.723 11.306 0 10.82 25.654 18.251 63.284l.5-.061c-.567-8.336-1.08-9.766-1.08-16.4 0-31.479 13.553-40.047 16.2-40.047 6.837 0 9.421 18.226 22.923 93.394 10.5-7.361 29.215-28.522 40.214-28.522 5 0 8.465 3.926 8.465 8.838 0 7.421-9.452 17.629-16.755 27.3-19.3 25.551-4.148 31.821-18.277 67.127 19.214 14.2-20.6-6.3 121.014 90.793 14.4-12.554 29.062-24.807 42.53-38.642-32.864-26.665-35.537-26.116-35.537-30.046a4.2 4.2 0 0 1 4.16-4.154c3.4 0 16.9 12.765 37.38 27.957 38.051-40.178 49.881-78.282 51.314-91.36-4.186.3-45.17 7.492-47.075 7.492a4.184 4.184 0 0 1-4.25-4.117v-.127c0-6.238 8.006-3.9 53.011-12.382a41.204 41.204 0 0 1 .616-6.184v-16.676c-1.395-7.388.418-50.317-27.827-82.913ZM157.9 322.318a7.495 7.495 0 0 1-1.3 2.021c-3.93 3.488-11.169 13.59-11.169 18.713 0 2.187.7 3.688.7 4.541a2.7 2.7 0 0 1-2.68 2.647 4.364 4.364 0 0 1-4.058-4.325c-.34-7.274-10.255-12.288-16.65-12.288-1.616 0-2.206.207-2.865.207a2.434 2.434 0 0 1-2.47-2.397q-.002-.066.001-.132a2.727 2.727 0 0 1 .88-1.937c6.841-6.894 10.614-4.639 12.032-19.126a3.852 3.852 0 0 1 3.542-3.516c2.19 0 2.792 2.91 6.547 6.639 9 8.936 17.49 2.169 17.49 8.767q.003.092 0 .186Zm165.118-212.271c-.837 1.811-1.63 2.419-3.279 2.419-.108 0-.22 0-.335-.008a2.4 2.4 0 0 0-.726-.116 4.875 4.875 0 0 0-2.564 1.155c-5.485 3.625-6.1 8.95-8.872 8.95a2.636 2.636 0 0 1-2.576-2.486c0-1.029.728-1.435.728-3.211v-.183c0-.769-.2-2.911-4.81-10.263-1.72-2.744-7.872-6.292-7.872-8.6a2.347 2.347 0 0 1 1.636-2.22 14.413 14.413 0 0 1 4.352-.956c13.122-.329 11.655-12.5 15.724-12.5 3.86 0 1.936 4.374 6.667 22.107.467 1.751 2.334 2.539 2.334 4.336a3.76 3.76 0 0 1-.407 1.576Zm208.163 213.7c-11.978 6.98-7.748 16.8-12.775 16.8a3.514 3.514 0 0 1-2.51-1.267c-4.175-4.469.016-7.594-8.432-13.762-1.362-1-4.682-.208-4.682-3.6 0-1.893 1.86-2.735 3.637-3.5 14.1-6.035 9.786-17.683 14.307-17.683a3.87 3.87 0 0 1 1.97.648c1.133.691 2.511 1.118 2.511 2.745a3.066 3.066 0 0 1-.056.573c.58 12.267 8.014 12.826 8.014 16.3a3.331 3.331 0 0 1-1.984 2.75Z" fill="rgb(95, 198, 144)"/>
  <path d="M419.091 458.627c-.683-1.16-4.65-7.86-9.78-16.99-.96-1.717-4.49-7.972-9.807-17.83-33.4-61.639-32.6-62.117-36.777-62.833-6.757-1.159-15.119-10.187-15.213-10.244a88.727 88.727 0 0 1-18.44 34.672c1.76 1.084 5.087 2.583 5.087 4.736a3.846 3.846 0 0 1-1.984 2.907c-19.849 12.7-56.878 95.22-123.27 164.433-.17.289-.336.566-.508.86.29.552 19.167 34.318 33.823 48.3 26.951-34.578 25.7-34.594 28.82-34.594h.008a4.255 4.255 0 0 1 4.22 4.2c0 3.2-16.942 22.571-26.815 36.4 36 31.649 76.085 29.67 95.35 32.348h17.566c1.725-.493 34.716-2.193 58.616-13.712-27.916-41.2-30.826-42.28-30.826-45.521a4.3 4.3 0 0 1 4.224-4.225c4.726 0 16.572 22.381 34.564 46.045 31.07-8.914 56.743-55.438 59.9-73.484-31.898-34.659-56.764-75.145-68.758-95.468Zm-60.477 4.061c-9.966 7.553-7.406 14.821-11.316 14.821-1.367 0-2.05-.81-3.046-3.377-3.42-8.814-9.557-9.047-9.557-11.747 0-2.182 3.424-3.322 6.807-7.582a3.477 3.477 0 0 1 1.237-1.74 24.746 24.746 0 0 0 2.888-7.284c.666-2.2 1.577-2.558 2.835-2.559 2.018 0 2.426 2.366 2.447 2.443 2.847 10.476 5.943 10.222 8.965 14.131 0 .029.008.145.008.288a2.934 2.934 0 0 1-1.269 2.606Z" fill="rgb(95, 198, 144)"/>
</svg>