<svg xmlns="http://www.w3.org/2000/svg" viewBox="0 0 64 64" id="html">
  <path fill="#eee" d="M55 18H42V5a1 1 0 0 0-1-1H13a1 1 0 0 0-1 1v28a1 1 0 0 0 1 1h27v16H13a1 1 0 0 0-1 1v8a1 1 0 0 0 1 1h42a1 1 0 0 0 1-1V19a1 1 0 0 0-1-1Z"/>
  <rect width="34" height="20" x="8" y="32" fill="#42a5f5" rx="1" ry="1"/>
  <path fill="#e0e0e0" d="m55.71 18.29-14-14A1 1 0 0 0 40 5v14a1 1 0 0 0 1 1h14a1 1 0 0 0 .71-1.71Z"/>
  <path fill="#fff" d="M11 46v-8h1.69v3h2.93v-3h1.69v8h-1.73v-3.43h-2.93V46zm9.2 0v-6.48h-1.85V38h5.33v1.52H21.9V46zm4.57 0v-8h2.59l1.46 4.91L30.35 38h2.51v8h-1.69v-5.12L29.59 46h-1.53l-1.6-5.12V46zm9.75 0v-8h1.69v6.48h2.7V46z"/>
</svg>