<svg xmlns="http://www.w3.org/2000/svg" width="512" height="512" fill-rule="evenodd" clip-rule="evenodd" viewBox="0 0 512 512" id="jpeg">
  <path fill="#dfdfdf" fill-rule="nonzero" d="M457 121l-121 -121 -250 0c-17,0 -31,14 -31,30l0 452c0,8 4,16 9,21l0 0c6,6 13,9 22,9l340 0c9,0 16,-3 22,-9l-5 -4 5 4c5,-5 9,-13 9,-21l0 -361z"/>
  <path fill="#b5b5b5" fill-rule="nonzero" d="M340 2l115 115c4,3 1,10 -4,10l0 0 -91 0c-17,0 -30,-14 -30,-30l0 -91c0,-5 6,-8 10,-4z"/>
  <path fill="#06178d" fill-rule="nonzero" d="M55 240l0 172 317 0c9,0 16,-3 22,-9l-5 -4 5 4c5,-5 8,-13 8,-21l0 -112c0,-9 -3,-16 -8,-22l-5 5 5 -5c-6,-5 -13,-8 -22,-8l-317 0z"/>
  <path fill="#b5b5b5" fill-rule="nonzero" d="M100 201c-8 0-8 12 0 12l258 0c8 0 8-12 0-12l-258 0zM100 155c-8 0-8 12 0 12l258 0c8 0 8-12 0-12l-258 0z"/>
  <path fill="#fff" fill-rule="nonzero" stroke="#fff" stroke-width=".9" d="M98 342l9 -1c0,9 3,15 11,15 10,0 11,-7 11,-16l0 -52 10 0 0 51c0,16 -5,26 -21,26 -14,0 -20,-9 -20,-23zm58 21l0 -75c8,0 33,0 39,1 21,3 22,26 12,37 -8,9 -28,7 -41,7l0 30 -10 0zm10 -39c9,0 27,1 33,-4 6,-6 5,-20 -5,-22 -4,-1 -23,-1 -28,-1l0 27zm60 39l0 -75 54 0 0 9 -44 0 0 23 41 0 0 9 -41 0 0 25 46 0 0 9 -56 0zm105 -29l0 -9 32 0 0 28c-29,23 -70,11 -70,-27 0,-45 49,-46 63,-29 2,3 4,7 6,12l-9 3c-4,-11 -10,-17 -22,-17 -30,0 -31,34 -24,47 9,18 34,16 46,6l0 -14 -22 0z"/>
</svg>