<svg xmlns="http://www.w3.org/2000/svg" width="512" height="512" fill-rule="evenodd" clip-rule="evenodd" viewBox="0 0 512 512" id="png">
  <path fill="#dfdfdf" fill-rule="nonzero" d="M457 121l-121 -121 -250 0c-17,0 -31,14 -31,30l0 452c0,8 4,16 9,21l0 0c6,6 13,9 22,9l340 0c9,0 16,-3 22,-9l-5 -4 5 4c5,-5 9,-13 9,-21l0 -361z"/>
  <path fill="#b5b5b5" fill-rule="nonzero" d="M340 2l115 115c4,3 1,10 -4,10l0 0 -91 0c-17,0 -30,-14 -30,-30l0 -91c0,-5 6,-8 10,-4z"/>
  <path fill="#d22323" fill-rule="nonzero" d="M55 240l0 172 317 0c9,0 16,-3 22,-9l-5 -4 5 4c5,-5 8,-13 8,-21l0 -112c0,-9 -3,-16 -8,-22l-5 5 5 -5c-6,-5 -13,-8 -22,-8l-317 0z"/>
  <path fill="#b5b5b5" fill-rule="nonzero" d="M100 201c-8 0-8 12 0 12l258 0c8 0 8-12 0-12l-258 0zM100 155c-8 0-8 12 0 12l258 0c8 0 8-12 0-12l-258 0z"/>
  <path fill="#fff" fill-rule="nonzero" d="M97 372l0 -93c10,0 41,0 49,1 26,5 27,33 15,46 -10,11 -34,8 -51,8l0 38 -13 0zm13 -48c12,0 33,1 41,-5 8,-7 6,-25 -6,-28 -5,-1 -29,-1 -35,-1l0 34zm74 48l0 -93 12 0 49 73 0 -73 12 0 0 93 -13 0 -48 -73 0 73 -12 0zm137 -36l0 -11 40 0 0 34c-36,29 -86,15 -86,-33 0,-55 60,-57 77,-36 3,4 6,9 7,15l-11 3c-4,-13 -12,-20 -27,-20 -37,0 -38,41 -29,58 11,22 42,20 56,7l0 -17 -27 0z"/>
</svg>