<svg xmlns="http://www.w3.org/2000/svg" width="2548" height="2682" viewBox="0 0 2548 2682" id="sign-up">
  <g fill="none" fill-rule="evenodd">
    <g transform="translate(4 4)">
      <circle cx="1684.91" cy="1219.23" r="5.331" stroke="#000" stroke-width="8"/>
      <circle cx="1286.67" cy="56.185" r="5.331" stroke="#000" stroke-width="8"/>
      <circle cx="100.054" cy="974.85" r="5.331" stroke="#000" stroke-width="8"/>
      <circle cx="1866.79" cy="735.251" r="5.331" stroke="#000" stroke-width="8"/>
      <circle cx="2533.81" cy="1056.13" r="5.331" stroke="#000" stroke-width="8"/>
      <circle cx="399.488" cy="2285.02" r="5.331" stroke="#000" stroke-width="8"/>
      <circle cx="968.71" cy="490.251" r="5.331" stroke="#000" stroke-width="8"/>
      <circle cx="2430.01" cy="2156.25" r="5.331" stroke="#000" stroke-width="8"/>
      <circle cx="1733.98" cy="2229.76" r="5.331" stroke="#000" stroke-width="8"/>
      <line x1="2174.62" x2="2203.98" y1="1711.77" y2="1733.12" stroke="#000" stroke-linecap="round" stroke-width="8"/>
      <line x1="467.888" x2="497.248" y1=".484" y2="21.838" stroke="#000" stroke-linecap="round" stroke-width="8"/>
      <line x1="1350.67" x2="1320.88" y1="2622.63" y2="2643.38" stroke="#000" stroke-linecap="round" stroke-width="8"/>
      <line x1="2219.09" x2="2189.3" y1="2529.38" y2="2550.13" stroke="#000" stroke-linecap="round" stroke-width="8"/>
      <line x1="156.51" x2="126.721" y1="431.953" y2="452.703" stroke="#000" stroke-linecap="round" stroke-width="8"/>
      <line x1="506.86" x2="477.071" y1="1397.33" y2="1418.08" stroke="#000" stroke-linecap="round" stroke-width="8"/>
      <line x1=".792" x2="34.582" y1="1827.63" y2="1814.35" stroke="#000" stroke-linecap="round" stroke-width="8"/>
      <line x1="2329.47" x2="2349.22" y1="221.627" y2="252.089" stroke="#000" stroke-linecap="round" stroke-width="8"/>
      <line x1="2136.84" x2="2156.59" y1="1097.49" y2="1127.96" stroke="#000" stroke-linecap="round" stroke-width="8"/>
      <line x1="542.511" x2="562.259" y1="2643.38" y2="2673.84" stroke="#000" stroke-linecap="round" stroke-width="8"/>
      <path stroke="#000" stroke-linecap="round" stroke-width="8" d="M1805.88,236.593 C1796.54,285.035 1790.95,361.552 1810.84,411.04 M2218.86,553.205 C2205.12,560.595 2191.87,566.476 2179.1,571.015 M1817.58,425.006 C1820.53,430.102 1823.86,434.752 1827.6,438.869 M1834.26,445.247 C1839.26,449.383 1844.86,452.701 1851.12,455.054 M1857.16,456.964 C1866.03,459.273 1876.12,459.8 1887.54,458.2 C1989.81,443.883 2013.88,322.578 2013.13,263.714 C2011.05,218.987 1983.79,161.615 1937.37,226.572 C1890.96,291.528 1925.08,418.424 1947.95,473.752 C1966.74,514.742 2015.77,574.258 2092.63,582.543 M2108.05,583.492 C2111.58,583.549 2115.16,583.498 2118.79,583.334 M2126.79,582.797 C2132.93,582.249 2139.22,581.38 2145.65,580.162 M2153.31,578.562 C2159.56,577.133 2165.94,575.377 2172.45,573.271"/>
      <path stroke="#FF85D2" stroke-linecap="round" stroke-width="8" d="M315.87,1763.75 C313.231,1777.44 311.65,1799.06 317.271,1813.04 M432.571,1853.21 C428.689,1855.3 424.943,1856.96 421.334,1858.25 M319.178,1816.99 C320.011,1818.43 320.952,1819.74 322.009,1820.91 M323.891,1822.71 C325.302,1823.88 326.884,1824.81 328.654,1825.48 M330.36,1826.02 C332.869,1826.67 335.718,1826.82 338.946,1826.37 C367.845,1822.32 374.647,1788.04 374.435,1771.41 C373.848,1758.77 366.144,1742.56 353.028,1760.91 C339.913,1779.27 349.555,1815.13 356.016,1830.76 C361.328,1842.35 375.182,1859.16 396.899,1861.51 M401.257,1861.77 C402.254,1861.79 403.266,1861.77 404.293,1861.73 M406.552,1861.58 C408.288,1861.42 410.065,1861.18 411.883,1860.83 M414.047,1860.38 C415.813,1859.98 417.617,1859.48 419.457,1858.88"/>
      <polygon fill="#000" fill-rule="nonzero" points="1292.74 2376.81 1323.2 2346.34 1146.51 2152.39 1133.31 2237.69 682.446 2320.96 701.74 2355.48 1109.95 2499.68 1165.8 2457.03 1165.8 2511.86 1261.26 2543.34"/>
      <polygon fill="#000" fill-rule="nonzero" points="913.46 2203.16 943.93 2172.7 767.238 1978.75 754.037 2064.05 303.173 2147.31 322.467 2181.84 730.681 2326.03 786.53 2283.38 786.53 2338.22 881.98 2369.7"/>
      <path stroke="#000" stroke-linecap="round" stroke-width="8" d="M1303.91 2332.13C1304.72 2325.63 1356.37 2204.85 1382.1 2145.28M1163.77 2180.82 1189.16 2108.72M924.63 2158.48C925.45 2151.98 977.53 2042.8 1003.26 1983.23M784.5 2007.18 812.09 1919.83"/>
      <path stroke="#000" stroke-width="8" d="M2288.48,1768.14 L2291.09,1789.37 L2442.88,1802.46 C2457.61,1803.33 2461.03,1810.1 2451.15,1816.97 C2461.44,1814.6 2477.94,1825.9 2464.28,1841.35 C2473.33,1841.24 2482.85,1850.85 2473.82,1861.65 C2472.88,1862.77 2469.96,1865.3 2465.76,1866.45 C2461.57,1867.59 2448.9,1869.2 2443.09,1869.86 L2472.33,1878.64 C2481.37,1881.35 2483.21,1898.74 2466.37,1898.49 L2337.45,1884.56 L2398.02,1921.87 C2405.52,1929.79 2403.75,1950.54 2381.69,1942.22 C2371.1,1939.04 2279.07,1919.83 2237.45,1898.92 L2200.64,1862.62 L2158.43,1755.42"/>
      <path stroke="#000" stroke-linecap="round" stroke-width="8" d="M1198.6 1021.06 1189.23 862.255 1093.84 782.301 1002.3 805.46C997.16 812.261 995.46 826.083 1029.87 826.965 1064.28 827.847 1081.34 827.333 1085.56 826.965L1130.23 879.35C1129.68 893.13 1124.27 921.7 1107.07 925.67 1104.37 926.29 1077.29 932.84 1069.57 917.4 1063.4 905.04 1055.24 879.35 1047.52 862.255 1039.61 856.558 1022.92 853.212 1019.4 885.41 1015.87 917.62 1051.38 1008.01 1069.57 1049.18M2451.75 1816.86 2371.96 1817.39M2465.21 1841.31 2378.63 1842.19M2446.62 1870.54 2388.31 1860.57"/>
      <path fill="#FF85D2" fill-rule="nonzero" d="M1740.05,911.09 C1765.89,911.89 1778.36,934.07 1779.53,942.65 C1804.88,942.65 1869.97,947.65 1927.53,967.66 C1985.09,987.66 2028.99,1054.21 2043.75,1084.99 L2360.33,1766.84 L2136.73,1796.73 L1979.55,1372.46 L2076.49,1720.13 C1956.14,1601.78 1690.43,1341.13 1592.14,1298.62 C1493.84,1256.12 1413.31,1330.14 1385.32,1372.46 C1376.93,1363.61 1356.35,1344.54 1341.18,1339.05 C1247.38,1305.83 1169.38,1352.89 1142.11,1380.57 L990.67,1053.26 L1230.04,977.48 L1322.86,1251.11 C1355.43,1203.89 1432.53,1098.21 1480.41,1053.26 C1528.28,1008.32 1596.46,984.02 1624.56,977.48 C1624.57,972.43 1625.27,960.02 1628.1,950.73 C1631.63,939.12 1707.74,910.08 1740.05,911.09 Z"/>
      <path stroke="#000" stroke-linecap="round" stroke-width="8" d="M1970.6,1344.93 L1932.46,1208.15 M1535.28,1284.43 L1558.95,1183.16"/>
      <line x1="1319.93" x2="1309.48" y1="1263.38" y2="1307.96" stroke="#000" stroke-linecap="round" stroke-width="8"/>
      <path fill="#000" fill-rule="nonzero" d="M1803.94,897.1 L1721.58,921.23 L1724.01,889.05 C1687.06,867.972 1685.19,827.566 1675.87,814.508 C1647.08,836.642 1609.46,839.671 1596.92,839.306 C1595.41,847.146 1596.1,856.746 1596.63,860.566 C1600.19,880.23 1614.93,922.57 1645.67,937.86 C1641.93,940.1 1633.74,945.16 1630.83,947.48 L1557.35,960.22 C1553.87,934.89 1577.93,920.58 1576.29,875.82 C1573.46,798.828 1611.08,752.368 1655.51,752.835 C1683.64,753.131 1699.8,767.142 1720.73,785.435 C1731.76,795.069 1742.14,797.627 1761.53,815.169 C1793.32,853.131 1768.3,876.79 1803.94,897.1 Z"/>
      <path stroke="#000" stroke-linecap="round" stroke-width="8" d="M1640.89 948.98 1645.62 980.97M1662.74 940.64 1669.27 967.9M1688.2 933.21 1698.34 957.54M1708.7 922.84 1721.99 955.29M1739.79 921.49 1756.01 947.4M1595.91 855.233C1605.19 853.317 1616.5 855.794 1623.46 865.941 1632.87 879.65 1633.81 899.61 1623.8 914.33 1625.06 914.42 1637.38 911.65 1646.18 900.92M1644.43 849.731C1649.94 845.529 1663.82 840.307 1675.25 853.036M1649.46 922.66C1653.34 922.8 1662.19 921 1666.49 912.61M1649.28 869.94C1654.32 871.66 1666.9 872.73 1676.9 863.249"/>
      <path stroke="#000" stroke-linecap="round" stroke-width="8" d="M1597.99 879.33C1603.25 884.17 1616.25 890.11 1626.09 875.13M1383.44 1373.53C1388.21 1366.05 1403.28 1346.11 1425.4 1326.21 1548.78 1218.08 1685.22 1357.68 1771.97 1428.45L1983.84 1631.85M1383.44 1373.53C1361.15 1340.9 1286.91 1292.35 1168.27 1359.11 1109.23 1390.01 871.02 1733.53 759.291 1901.43L1034.98 1994.69M1383.44 1373.53C1371.21 1390.87 1353.17 1420.74 1333.85 1459.96M1250.13 1706.79 1102.03 2017.37 1034.98 1994.69M1250.13 1706.79 1150.27 2101.15 1383.44 2144.67M1250.13 1706.79C1268.83 1609.31 1302.96 1522.68 1333.85 1459.96M1540.39 1928.51 1517.55 2169.69 1383.44 2144.67M1540.39 1928.51 1983.84 1904.81C2016.55 1880.89 2080.61 1810.35 2075.21 1719.57L1983.84 1631.85M1540.39 1928.51 1582.07 1584.01M1383.44 2144.67 1540.39 1413.73 1940.27 1855.58 1983.84 1631.85M1333.85 1459.96 1168.27 1428.45 1034.98 1994.69"/>
      <path fill="#000" fill-rule="nonzero" d="M1031.48,798.73 C1032.37,800.127 1034.23,800.538 1035.63,799.647 C1037.02,798.757 1037.43,796.902 1036.54,795.505 L1031.48,798.73 Z M1057.26,884.97 C1057.26,975.2 984.11,1048.35 893.88,1048.35 L893.88,1054.35 C987.43,1054.35 1063.26,978.52 1063.26,884.97 L1057.26,884.97 Z M893.88,721.584 C951.78,721.584 1002.44,753.171 1031.48,798.73 L1036.54,795.505 C1006.51,748.391 954.03,715.584 893.88,715.584 L893.88,721.584 Z M1047.45,829.071 C1053.8,846.505 1057.26,865.329 1057.26,884.97 L1063.26,884.97 C1063.26,864.619 1059.67,845.101 1053.09,827.018 L1047.45,829.071 Z M730.971,897.55 C730.655,893.4 730.494,889.2 730.494,884.97 L724.494,884.97 C724.494,889.35 724.661,893.7 724.988,898 L730.971,897.55 Z M812.93,1026.92 C774.382,1004.89 745.675,967.62 735.02,923.32 L729.187,924.72 C740.237,970.66 770,1009.3 809.95,1032.13 L812.93,1026.92 Z M893.88,1048.35 C867.48,1048.35 842.54,1042.09 820.48,1030.98 L817.78,1036.34 C840.66,1047.86 866.52,1054.35 893.88,1054.35 L893.88,1048.35 Z M730.494,884.97 C730.494,866.475 733.566,848.705 739.224,832.137 L733.546,830.198 C727.677,847.382 724.494,865.806 724.494,884.97 L730.494,884.97 Z M741.011,827.169 C764.358,765.456 824,721.584 893.88,721.584 L893.88,715.584 C821.42,715.584 759.599,761.076 735.399,825.046 L741.011,827.169 Z"/>
      <circle cx="837.06" cy="1072.99" r="48.693" stroke="#000" stroke-width="6"/>
      <circle cx="746.546" cy="796.232" r="35.597" stroke="#000" stroke-width="6" transform="rotate(90.337 746.546 796.232)"/>
      <circle cx="837.06" cy="1072.99" r="41.635" stroke="#000" stroke-width="6"/>
      <circle cx="746.545" cy="796.232" r="30.327" stroke="#000" stroke-width="6" transform="rotate(90.337 746.545 796.232)"/>
      <path stroke="#000" stroke-width="6" d="M672.213,925.16 C677.067,907.72 693.065,894.93 712.052,894.93 C734.889,894.93 753.401,913.44 753.401,936.28 C753.401,959.11 734.889,977.62 712.052,977.62 C703.608,977.62 695.755,975.09 689.21,970.75"/>
      <path fill="#000" fill-rule="nonzero" d="M673.225,927.8 C674.827,927.38 675.782,925.73 675.359,924.13 C674.936,922.53 673.294,921.57 671.692,922 L673.225,927.8 Z M524.966,963.86 L524.2,960.96 L514.28,963.58 L524.049,966.72 L524.966,963.86 Z M585.678,983.36 L584.761,986.21 L586.548,986.79 L587.846,985.43 L585.678,983.36 Z M597.932,970.55 L599.006,967.74 L597.143,967.03 L595.764,968.47 L597.932,970.55 Z M631.351,983.36 L630.278,986.16 L632.628,987.06 L633.924,984.9 L631.351,983.36 Z M644.719,961.08 L646.73,958.85 L644.023,956.41 L642.147,959.53 L644.719,961.08 Z M661.986,976.67 L659.975,978.9 L661.127,979.94 L662.642,979.6 L661.986,976.67 Z M689.964,973.47 C691.58,973.11 692.597,971.51 692.235,969.89 C691.872,968.27 690.268,967.26 688.651,967.62 L689.964,973.47 Z M671.692,922 L524.2,960.96 L525.732,966.76 L673.225,927.8 L671.692,922 Z M524.049,966.72 L584.761,986.21 L586.595,980.5 L525.883,961.01 L524.049,966.72 Z M587.846,985.43 L600.1,972.62 L595.764,968.47 L583.51,981.28 L587.846,985.43 Z M596.858,973.35 L630.278,986.16 L632.425,980.55 L599.006,967.74 L596.858,973.35 Z M633.924,984.9 L647.292,962.62 L642.147,959.53 L628.779,981.81 L633.924,984.9 Z M642.708,963.3 L659.975,978.9 L663.997,974.45 L646.73,958.85 L642.708,963.3 Z M662.642,979.6 L689.964,973.47 L688.651,967.62 L661.329,973.74 L662.642,979.6 Z"/>
      <path stroke="#000" stroke-width="6" d="M816.04 1119.84 782.49 1182.9M782.49 1182.9 748.947 1245.96 803.41 1277.13C805.67 1266.66 799.27 1245.96 799.27 1245.96 799.27 1245.96 826.55 1248.21 825.98 1237.26 825.65 1230.86 816.04 1224.21 816.04 1224.21 816.04 1224.21 835.32 1226.2 845.86 1221.11L782.49 1182.9ZM711.656 780.331 664.724 755.007M664.724 755.007 617.791 729.682 594.273 770.206C602.079 771.942 617.57 767.253 617.57 767.253 617.57 767.253 615.763 787.615 623.946 787.237 628.723 787.016 633.73 779.872 633.73 779.872 633.73 779.872 632.162 794.256 635.918 802.151L664.724 755.007Z"/>
      <circle cx="728.911" cy="936.27" r="10.847" stroke="#000" stroke-width="6"/>
      <path fill="#000" fill-rule="nonzero" d="M1279,329.424 L1279,512.605 L1038.38,512.605 L1038.38,329.424 L1279,329.424 Z M1158.69,374.7931 C1145.32035,374.7931 1134.4821,385.631346 1134.4821,399.001 C1134.4821,408.546063 1140.00639,416.800859 1148.03215,420.742574 L1148.03215,420.742574 L1128.69,476.506 L1188.69,476.506 L1168.86259,420.97422 C1177.15009,417.131035 1182.8979,408.737254 1182.8979,399.001 C1182.8979,385.631346 1172.05965,374.7931 1158.69,374.7931 Z"/>
      <path stroke="#000" stroke-width="8" d="M1261.71,343.269 C1262.35,295.92 1244.56,200.325 1168.29,196.741 C1116.17,194.292 1087.77,238.917 1074,283.077 L1102.9,294.917 C1112.41,256.585 1134.73,222.855 1171.3,226.287 C1222.78,231.116 1232.06,307.224 1232.28,343.269 L1261.71,343.269 Z"/>
      <path fill="#000" fill-rule="nonzero" d="M287.103407,791.966064 L331.148548,878.419218 L217.587141,936.275154 L173.542,849.822 L287.103407,791.966064 Z M258.477017,847.910316 C255.262342,841.600453 247.541179,839.091308 241.231316,842.305983 C234.921453,845.520658 232.412308,853.241821 235.626983,859.551684 C237.922189,864.056784 242.514639,866.624416 247.250497,866.554646 L247.250497,866.554646 L251.528,897.53 L279.849,883.1 L257.135565,861.65641 C260.123479,857.849845 260.818265,852.505789 258.477017,847.910316 Z"/>
      <path stroke="#000" stroke-width="8" d="M202.951,755.964 C166.093,772.612 177.449,824.617 187.735,848.539 L203.757,842.658 C194.548,820.85 182.903,778.438 209.105,768.044 C234.56,757.946 259.614,792.773 268.382,809.734 L282.273,802.656 C271.19,780.156 239.809,739.317 202.951,755.964 Z"/>
      <path fill="#000" fill-rule="nonzero" d="M618.014,1439.96 L794.482604,1544.28167 L715.064029,1678.62466 L538.595425,1574.30299 L618.014,1439.96 Z M686.579423,1525.39614 C676.774236,1519.59968 664.1266,1522.84939 658.330138,1532.65458 C654.192498,1539.65373 654.664259,1548.10123 658.839498,1554.4713 L658.839498,1554.4713 L620.476,1586.98 L664.485,1613 L674.014897,1563.67503 C681.760082,1564.4508 689.616124,1560.78683 693.837862,1553.64542 C699.634324,1543.84024 696.38461,1531.1926 686.579423,1525.39614 Z"/>
      <path stroke="#000" stroke-width="8" d="M770.816,1398.98 C716.433,1363.28 655.607,1423.54 631.992,1458.13 L653.791,1474.82 C675.464,1443.51 723.015,1391.13 759.719,1417.75 C795.38,1443.61 769.686,1507.65 754.215,1534.18 L775.801,1546.94 C796.8,1512.5 825.2,1434.67 770.816,1398.98 Z"/>
    </g>
  </g>
</svg>